# xmcd
#
# Track frame offsets:
#	150
#	17807
#	32692
#	49727
#	68672
#	93615
#	112625
#	134445
#	153312
#	167587
#	185830
#	205267
#	218265
#	236852
#	258180
#
# Disc length: 3665 seconds
#
# Revision: 1
# Processed by: cddbd v1.5PL3 Copyright (c) Steve Scherf et al.
# Submitted via: CDex 1.50Beta5
#
DISCID=c60e4f0f
DTITLE=Susanna Hoffs - Susanna Hoffs
DYEAR=1996
DGENRE=Rock
TTITLE0=Beekeeper's Blues
TTITLE1=All I Want
TTITLE2=Enormous Wings
TTITLE3=Falling
TTITLE4=Darling One
TTITLE5=King Of Tragedy
TTITLE6=Eyes Of A Baby
TTITLE7=Grand Adventure
TTITLE8=Happy Place
TTITLE9=Those Days Are Over
TTITLE10=Weak With Love
TTITLE11=To Sir With Love
TTITLE12=Turning Over
TTITLE13=Catch The Wind
TTITLE14=Stuck In The Middle(Secret )
EXTD=
EXTT0=
EXTT1=
EXTT2=
EXTT3=
EXTT4=
EXTT5=
EXTT6=
EXTT7=
EXTT8=
EXTT9=
EXTT10=
EXTT11=
EXTT12=
EXTT13=
EXTT14=
PLAYORDER=
